
<svg version="1.1" id="Layer_1"
	  x="0px" y="0px" viewBox="0 0 274.18 274.18" >
	<g>
		<g>
			<circle  cx="137.09" cy="137.09" r="135.67"/>
			<path d="M137.09,274.18C61.5,274.18,0,212.68,0,137.09S61.5,0,137.09,0s137.09,61.5,137.09,137.09
				S212.68,274.18,137.09,274.18z M137.09,2.83C63.06,2.83,2.83,63.06,2.83,137.09s60.23,134.25,134.25,134.25
				s134.25-60.23,134.25-134.25S211.12,2.83,137.09,2.83z"/>
		</g>
		<path d="M231.52,173.98h-55.86c-0.78,0-1.42-0.63-1.42-1.42s0.63-1.42,1.42-1.42h53.27l-53.01-83.07l-37.99,56.29
			l17.69,27.43c0.28,0.44,0.3,0.99,0.05,1.45c-0.25,0.46-0.73,0.74-1.24,0.74h-37.24c-0.52,0-1.01-0.29-1.25-0.75
			s-0.22-1.02,0.08-1.46l18.52-27.44L98.27,88.11l-35.03,54.31h35.29c0.78,0,1.42,0.63,1.42,1.42s-0.63,1.42-1.42,1.42H61.4
			l-17.55,27.21c-0.34,0.53-0.99,0.77-1.59,0.59c-0.6-0.18-1.02-0.73-1.02-1.36v-27.86c0-0.78,0.63-1.42,1.42-1.42h17.2l37.22-57.7
			c0.52-0.81,1.86-0.81,2.38,0l36.8,57.05l38.52-57.08c0.27-0.4,0.7-0.67,1.19-0.62c0.48,0.01,0.92,0.25,1.18,0.65l55.57,87.07
			c0.28,0.44,0.3,0.99,0.05,1.44C232.52,173.7,232.04,173.98,231.52,173.98z M119.86,171.15h31.97l-15.62-24.22L119.86,171.15z
			 M44.08,145.26v21.63l13.95-21.63H44.08z"/>
	</g>
</svg>
